<svg id="Layer_1" enable-background="new 0 0 512 512" height="512" viewBox="0 0 512 512" width="512" xmlns="http://www.w3.org/2000/svg"><g clip-rule="evenodd" fill-rule="evenodd"><path d="m105 235.75c57.897 0 105-47.103 105-105s-47.103-105-105-105-105 47.103-105 105 47.103 105 105 105zm-39.108-41.032c9.393-11.785 23.758-18.967 39.108-18.967s29.715 7.182 39.108 18.967c-11.395 6.992-24.787 11.032-39.108 11.032s-27.714-4.04-39.108-11.032zm39.108-48.968c-8.271 0-15-6.729-15-15s6.729-15 15-15 15 6.729 15 15-6.729 15-15 15zm0-90c41.355 0 75 33.645 75 75 0 16.193-5.175 31.19-13.935 43.461-6.565-7.75-14.513-14.163-23.373-18.925 4.613-7.063 7.307-15.489 7.307-24.536 0-24.813-20.187-45-45-45s-45 20.187-45 45c0 9.048 2.693 17.474 7.307 24.537-8.859 4.762-16.808 11.174-23.372 18.924-8.759-12.271-13.934-27.269-13.934-43.461 0-41.355 33.645-75 75-75z"/><path d="m407 276.25c-57.897 0-105 47.103-105 105s47.103 105 105 105 105-47.103 105-105-47.103-105-105-105zm-39.108 168.968c9.393-11.785 23.758-18.967 39.108-18.967 15.351 0 29.715 7.182 39.108 18.967-11.395 6.992-24.787 11.032-39.108 11.032s-27.714-4.04-39.108-11.032zm39.108-48.968c-8.271 0-15-6.729-15-15s6.729-15 15-15 15 6.729 15 15-6.729 15-15 15zm61.065 28.461c-6.565-7.75-14.513-14.163-23.372-18.925 4.614-7.063 7.307-15.489 7.307-24.537 0-24.813-20.187-45-45-45s-45 20.187-45 45c0 9.048 2.693 17.473 7.307 24.536-8.859 4.762-16.808 11.174-23.373 18.925-8.759-12.27-13.934-27.268-13.934-43.46 0-41.355 33.645-75 75-75s75 33.645 75 75c0 16.193-5.175 31.19-13.935 43.461z"/><path d="m247 350.502v-56.251c0-8.284-6.716-15-15-15h-217c-8.284 0-15 6.716-15 15v174c0 8.284 6.716 15 15 15h217c8.284 0 15-6.716 15-15v-56.252l20.484-20.021c2.888-2.822 4.516-6.689 4.516-10.728s-1.628-7.905-4.516-10.728zm-25.485 44.455c-2.888 2.822-4.516 6.689-4.516 10.728v47.566h-186.999v-144h187v47.565c0 4.038 1.628 7.905 4.516 10.728l14.024 13.707z"/><path d="m512 220.752v-180.002c0-8.284-6.716-15-15-15h-217c-8.284 0-15 6.716-15 15v56.252l-20.484 20.021c-2.888 2.822-4.516 6.689-4.516 10.728s1.628 7.905 4.516 10.728l20.484 20.019v62.254c0 8.284 6.716 15 15 15h217c8.284 0 15-6.716 15-15zm-30-15h-187v-53.568c0-4.038-1.628-7.905-4.516-10.728l-14.024-13.706 14.024-13.707c2.888-2.822 4.516-6.689 4.516-10.728v-47.565h187z"/><path d="m340 116h96.889c8.284 0 15-6.716 15-15s-6.716-15-15-15h-96.889c-8.284 0-15 6.716-15 15s6.715 15 15 15z"/><path d="m340 176h96.889c8.284 0 15-6.716 15-15s-6.716-15-15-15h-96.889c-8.284 0-15 6.716-15 15s6.715 15 15 15z"/><circle cx="123.58" cy="381.5" r="15"/><ellipse cx="63.42" cy="381.5" rx="15" ry="15" transform="matrix(.707 -.707 .707 .707 -251.186 156.584)"/><ellipse cx="183.58" cy="381.5" rx="15" ry="15" transform="matrix(.973 -.23 .23 .973 -82.74 52.383)"/></g></svg>